# xmcd
#
# Track frame offsets: 
#        150
#        15599
#        29714
#        46160
#        61217
#        73114
#        93772
#        114860
#        136312
#        151450
#        166714
#        184546
#        194256
#        209148
#        220811
#
# Disc length: 3171 seconds
#
# Revision: 1
# Processed by: cddbd v1.5.2PL0 Copyright (c) Steve Scherf et al.
# Submitted via: ExactAudioCopy v1.2
#
DISCID=cb0c610f
DTITLE=Various Artist - Southern Gospel's 15 All-Time Favorites
DYEAR=2007
DGENRE=Gospel
TTITLE0=Booth Brothers, The - He Saw It All
TTITLE1=Isaacs, The - Stand Still
TTITLE2=Crabb Family, The - Through The Fire
TTITLE3=Greater Vision - My Name Is Lazarus
TTITLE4=Martins, The - Out Of His Great Love
TTITLE5=Kingsmen, The - Wish You Were Here
TTITLE6=Rusty Goodman and Tanya Goodman Sykes - Who Am I
TTITLE7=Gold City - Midnight Cry
TTITLE8=Talleys, The - Sweeter As The Days Go By
TTITLE9=Cathedrals, The - Step Into The Water
TTITLE10=Squire Parsons - Sweet Beulah Land
TTITLE11=Inspirations, The - When I Wake Up To Sleep No More
TTITLE12=Rambos, The - Sheltered In The Arms Of God
TTITLE13=Hinsons, The - Lighthouse
TTITLE14=Oak Ridge Boys (Old Group) - Jesus Is Coming Soon
EXTD=
EXTT0=
EXTT1=
EXTT2=
EXTT3=
EXTT4=
EXTT5=
EXTT6=
EXTT7=
EXTT8=
EXTT9=
EXTT10=
EXTT11=
EXTT12=
EXTT13=
EXTT14=
PLAYORDER=
